<svg width="1600" height="1200" viewBox="0 0 1600 1200" fill="none" xmlns="http://www.w3.org/2000/svg">
  <rect width="1600" height="1200" fill="#081C3D"/>
  <g opacity="0.7">
    <circle cx="1240" cy="220" r="320" fill="#1E73FF"/>
    <circle cx="1240" cy="220" r="320" fill="url(#paint0_radial)"/>
  </g>
  <g opacity="0.45">
    <circle cx="310" cy="860" r="360" fill="#0FA7B5"/>
    <circle cx="310" cy="860" r="360" fill="url(#paint1_radial)"/>
  </g>
  <g opacity="0.35">
    <path d="M1032 355C1191 248 1371 290 1490 408C1609 526 1638 709 1555 838C1471 966 1272 1040 1078 981C884 922 773 742 793 591C813 439 873 462 1032 355Z" fill="url(#paint2_linear)"/>
  </g>
  <g opacity="0.22" stroke="white">
    <path d="M126 905C331 691 570 569 856 550"/>
    <path d="M286 1011C514 759 769 637 1062 619"/>
    <path d="M912 250C1058 255 1199 313 1295 420"/>
  </g>
  <g opacity="0.13" fill="white">
    <circle cx="1188" cy="330" r="12"/>
    <circle cx="1251" cy="387" r="8"/>
    <circle cx="363" cy="769" r="10"/>
    <circle cx="433" cy="852" r="7"/>
  </g>
  <defs>
    <radialGradient id="paint0_radial" cx="0" cy="0" r="1" gradientUnits="userSpaceOnUse" gradientTransform="translate(1240 220) rotate(90) scale(320)">
      <stop stop-color="#65C7FF"/>
      <stop offset="1" stop-color="#1E73FF" stop-opacity="0"/>
    </radialGradient>
    <radialGradient id="paint1_radial" cx="0" cy="0" r="1" gradientUnits="userSpaceOnUse" gradientTransform="translate(310 860) rotate(90) scale(360)">
      <stop stop-color="#63F3D6"/>
      <stop offset="1" stop-color="#0FA7B5" stop-opacity="0"/>
    </radialGradient>
    <linearGradient id="paint2_linear" x1="806" y1="332" x2="1500" y2="983" gradientUnits="userSpaceOnUse">
      <stop stop-color="#89A8FF"/>
      <stop offset="1" stop-color="#5BE0C4"/>
    </linearGradient>
  </defs>
</svg>
